HIERARCHY
ROOT joint_Root
{
	OFFSET 0.0 0.0 0.0
	CHANNELS 6 Xposition Yposition Zposition Zrotation Xrotation Yrotation 
	JOINT Hips
	{
		OFFSET -0.726466 93.3139 -2.00062
		CHANNELS 6 Xposition Yposition Zposition Zrotation Xrotation Yrotation 
		JOINT Spine
		{
			OFFSET 15.7357 0.0 0.0
			CHANNELS 6 Xposition Yposition Zposition Zrotation Xrotation Yrotation 
			JOINT Chest
			{
				OFFSET 8.98455 -0.406207 0.0
				CHANNELS 6 Xposition Yposition Zposition Zrotation Xrotation Yrotation 
				JOINT Neck
				{
					OFFSET 16.3773 0.0 0.0
					CHANNELS 6 Xposition Yposition Zposition Zrotation Xrotation Yrotation 
					JOINT Head
					{
						OFFSET 6.45672 0.0 0.0
						CHANNELS 6 Xposition Yposition Zposition Zrotation Xrotation Yrotation 
						End Site
						{
							OFFSET 0.0 0.0 0.0
						}
					}
				}
				JOINT Shoulder_L
				{
					OFFSET 12.9942 -0.242716 4.98039
					CHANNELS 6 Xposition Yposition Zposition Zrotation Xrotation Yrotation 
					JOINT UpperArm_L
					{
						OFFSET 5.34809 0.0 0.0
						CHANNELS 6 Xposition Yposition Zposition Zrotation Xrotation Yrotation 
						JOINT LowerArm_L
						{
							OFFSET 24.3286 1.87007e-05 0.0
							CHANNELS 6 Xposition Yposition Zposition Zrotation Xrotation Yrotation 
							JOINT Hand_L
							{
								OFFSET 22.2916 0.0 0.0
								CHANNELS 6 Xposition Yposition Zposition Zrotation Xrotation Yrotation 
								End Site
								{
									OFFSET 0.0 0.0 0.0
								}
							}
						}
					}
				}
				JOINT Shoulder_R
				{
					OFFSET 12.9945 -0.242716 -4.98039
					CHANNELS 6 Xposition Yposition Zposition Zrotation Xrotation Yrotation 
					JOINT UpperArm_R
					{
						OFFSET -5.34813 0.0 0.0
						CHANNELS 6 Xposition Yposition Zposition Zrotation Xrotation Yrotation 
						JOINT LowerArm_R
						{
							OFFSET -24.3289 0.000322201 0.0
							CHANNELS 6 Xposition Yposition Zposition Zrotation Xrotation Yrotation 
							JOINT Hand_R
							{
								OFFSET -22.2915 -0.000108084 0.0
								CHANNELS 6 Xposition Yposition Zposition Zrotation Xrotation Yrotation 
								End Site
								{
									OFFSET 0.0 0.0 0.0
								}
							}
						}
					}
				}
			}
		}
		JOINT UpperLeg_L
		{
			OFFSET -2.19248 -6.46944 0.0
			CHANNELS 6 Xposition Yposition Zposition Zrotation Xrotation Yrotation 
			JOINT LowerLeg_L
			{
				OFFSET 39.0811 0.0 -1.23785e-05
				CHANNELS 6 Xposition Yposition Zposition Zrotation Xrotation Yrotation 
				JOINT Foot_L
				{
					OFFSET 40.9854 0.0 -1.26872e-05
					CHANNELS 6 Xposition Yposition Zposition Zrotation Xrotation Yrotation 
					JOINT Toes_L
					{
						OFFSET 11.7543 0.0 0.0
						CHANNELS 6 Xposition Yposition Zposition Zrotation Xrotation Yrotation 
						End Site
						{
							OFFSET 0.0 0.0 0.0
						}
					}
				}
			}
		}
		JOINT UpperLeg_R
		{
			OFFSET -2.19251 6.46944 0.0
			CHANNELS 6 Xposition Yposition Zposition Zrotation Xrotation Yrotation 
			JOINT LowerLeg_R
			{
				OFFSET -39.0811 -0.00228153 -0.0401928
				CHANNELS 6 Xposition Yposition Zposition Zrotation Xrotation Yrotation 
				JOINT Foot_R
				{
					OFFSET -40.9854 0.0 0.0
					CHANNELS 6 Xposition Yposition Zposition Zrotation Xrotation Yrotation 
					JOINT Toes_R
					{
						OFFSET -11.7543 0.0 0.0
						CHANNELS 6 Xposition Yposition Zposition Zrotation Xrotation Yrotation 
						End Site
						{
							OFFSET 0.0 0.0 0.0
						}
					}
				}
			}
		}
	}
}
MOTION
Frames:	5
Frame Time:	0.0333333
0.000000 0.000000 0.000000 0.000000 0.000000 -0.000000 0.141305 92.166400 -2.051080 87.530300 -2.955080 2.738370 15.735700 0.000005 -0.000001 88.646900 85.369000 -90.652400 8.984550 -0.406207 -0.000000 1.494640 -0.108910 -4.006150 16.377300 -0.000001 -0.000001 0.105899 -1.976060 -0.142576 6.456720 -0.000001 -0.000000 -4.219870 -1.438570 -2.019150 12.994200 -0.242716 4.980390 -87.544300 -6.792080 -70.067900 5.348090 -0.000007 -0.000001 12.484700 76.409000 -61.906200 24.328600 0.000019 0.000005 14.689700 0.326212 -88.755900 22.291600 -0.000001 0.000005 45.513300 5.564860 -32.812700 12.994500 -0.242716 -4.980390 92.044400 -4.537920 -65.716500 -5.348130 -0.000001 -0.000004 -54.077900 -56.254900 -88.987700 -24.328900 0.000322 -0.000009 -0.714895 -1.056330 -34.051100 -22.291500 -0.000108 -0.000004 20.918700 5.392360 -2.690810 -2.192480 -6.469440 -0.000000 -169.007000 -17.845000 -3.379230 39.081100 -0.000007 -0.000012 -0.182599 0.460876 21.613700 40.985400 -0.000006 -0.000013 -6.029790 1.763990 -63.258900 11.754300 -0.000000 0.000003 -0.000184 -0.001729 -16.642900 -2.192510 6.469440 -0.000001 174.336000 19.135500 178.063000 -39.081100 -0.002282 -0.040193 0.029009 -0.076317 18.601300 -40.985400 0.000008 0.000006 -1.642150 3.699230 -61.997500 -11.754300 -0.000006 -0.000006 -0.005533 -0.066536 -19.280700
0.000000 0.000000 0.000000 0.000000 0.000000 -0.000000 0.099792 92.175600 -2.067360 87.459200 -2.908070 2.713910 15.735700 0.000005 -0.000001 89.456800 85.383800 -91.476700 8.984550 -0.406207 -0.000000 1.469480 0.023424 -4.036570 16.377300 -0.000001 -0.000001 0.236025 -2.049890 -0.010846 6.456720 -0.000001 -0.000000 -4.148600 -1.484750 -2.094760 12.994200 -0.242716 4.980390 -87.551700 -6.766130 -70.053300 5.348090 -0.000007 -0.000001 12.330400 76.358500 -61.738000 24.328600 0.000019 0.000005 14.737900 0.326158 -88.760300 22.291600 -0.000001 0.000005 45.595300 5.568490 -32.630100 12.994500 -0.242716 -4.980390 92.150900 -4.730080 -65.513000 -5.348130 -0.000001 -0.000004 -54.945400 -56.502500 -92.696700 -24.328900 0.000322 -0.000009 -0.712594 -0.965586 -36.386700 -22.291500 -0.000108 -0.000004 20.906400 5.394350 -2.754830 -2.192480 -6.469440 -0.000000 -168.915000 -17.848700 -3.406600 39.081100 -0.000007 -0.000012 -0.180777 0.457030 21.581400 40.985400 -0.000006 -0.000013 -6.042820 1.831770 -63.215100 11.754300 -0.000000 0.000003 -0.000169 -0.001603 -16.638300 -2.192510 6.469440 -0.000001 174.474000 19.167000 178.033000 -39.081100 -0.002282 -0.040193 0.033461 -0.089633 18.584300 -40.985400 0.000008 0.000006 -1.329570 3.661430 -62.014100 -11.754300 -0.000006 -0.000006 -0.005279 -0.064137 -19.182900
0.000000 0.000000 0.000000 0.000000 0.000000 -0.000000 0.053513 92.170400 -2.076100 87.426300 -2.836570 2.754470 15.735700 0.000005 -0.000001 90.235400 85.377700 -92.289400 8.984550 -0.406207 -0.000000 1.484440 0.150476 -4.106310 16.377300 -0.000001 -0.000001 0.370433 -2.120750 0.115542 6.456720 -0.000001 -0.000000 -4.082290 -1.563410 -2.133040 12.994200 -0.242716 4.980390 -87.540700 -6.797320 -70.055500 5.348090 -0.000007 -0.000001 11.895700 76.300500 -61.350700 24.328600 0.000019 0.000005 14.500600 0.325093 -88.743300 22.291600 -0.000001 0.000005 45.522800 5.563450 -32.883200 12.994500 -0.242716 -4.980390 92.262000 -4.930560 -65.317000 -5.348130 -0.000001 -0.000004 -55.745700 -56.642000 -96.290000 -24.328900 0.000322 -0.000009 -0.555822 -0.686993 -38.920500 -22.291500 -0.000108 -0.000004 20.818300 5.402790 -3.028510 -2.192480 -6.469440 -0.000000 -168.836000 -17.813200 -3.403150 39.081100 -0.000007 -0.000012 -0.182408 0.460386 21.614100 40.985400 -0.000006 -0.000013 -6.067270 1.878350 -63.204700 11.754300 -0.000000 0.000003 -0.000179 -0.001683 -16.641200 -2.192510 6.469440 -0.000001 174.516000 19.197300 178.073000 -39.081100 -0.002282 -0.040193 0.032828 -0.087576 18.618600 -40.985400 0.000008 0.000006 -1.320960 3.644580 -62.049100 -11.754300 -0.000006 -0.000006 -0.005290 -0.064243 -19.187200
0.000000 0.000000 0.000000 0.000000 0.000000 -0.000000 0.007358 92.174700 -2.098280 87.348300 -2.799210 2.781630 15.735700 0.000005 -0.000001 90.974600 85.368000 -93.039300 8.984550 -0.406207 -0.000000 1.504910 0.270221 -4.129360 16.377300 -0.000001 -0.000001 0.475630 -2.203130 0.199755 6.456720 -0.000001 -0.000000 -4.028230 -1.608930 -2.239290 12.994200 -0.242716 4.980390 -87.547000 -6.791170 -70.086200 5.348090 -0.000007 -0.000001 11.599700 76.308000 -61.057100 24.328600 0.000019 0.000005 14.531400 0.326987 -88.738700 22.291600 -0.000001 0.000005 45.513900 5.566220 -32.744600 12.994500 -0.242716 -4.980390 92.370100 -5.124660 -65.138500 -5.348130 -0.000001 -0.000004 -56.504100 -56.668700 -99.871100 -24.328900 0.000322 -0.000009 -0.317135 -0.356540 -41.553500 -22.291500 -0.000108 -0.000004 20.847900 5.408260 -3.207800 -2.192480 -6.469440 -0.000000 -168.723000 -17.747500 -3.399370 39.081100 -0.000007 -0.000012 -0.183788 0.463802 21.616900 40.985400 -0.000006 -0.000013 -6.102650 1.856930 -63.180300 11.754300 -0.000000 0.000003 -0.000189 -0.001766 -16.644300 -2.192510 6.469440 -0.000001 174.636000 19.254700 178.091000 -39.081100 -0.002282 -0.040193 0.035913 -0.096714 18.621800 -40.985400 0.000008 0.000006 -1.258590 3.612780 -62.018600 -11.754300 -0.000006 -0.000006 -0.005519 -0.066400 -19.275100
0.000000 0.000000 0.000000 0.000000 0.000000 -0.000000 -0.047240 92.169400 -2.113870 87.310000 -2.800300 2.810800 15.735700 0.000005 -0.000001 91.758100 85.351200 -93.844200 8.984550 -0.406207 -0.000000 1.537860 0.398396 -4.173890 16.377300 -0.000001 -0.000001 0.612067 -2.242270 0.238251 6.456720 -0.000001 -0.000000 -4.073350 -1.644090 -2.249690 12.994200 -0.242716 4.980390 -87.540200 -6.809960 -70.085800 5.348090 -0.000007 -0.000001 11.465400 76.249500 -60.964900 24.328600 0.000019 0.000005 14.492900 0.323826 -88.747500 22.291600 -0.000001 0.000005 45.500200 5.566000 -32.755600 12.994500 -0.242716 -4.980390 92.482300 -5.334280 -64.999300 -5.348130 -0.000001 -0.000004 -57.380600 -56.533000 -103.470000 -24.328900 0.000322 -0.000009 -0.104564 -0.106357 -44.193100 -22.291500 -0.000108 -0.000004 20.897800 5.412020 -3.332320 -2.192480 -6.469440 -0.000000 -168.640000 -17.709400 -3.397810 39.081100 -0.000007 -0.000012 -0.184751 0.465448 21.649900 40.985400 -0.000006 -0.000013 -6.138180 1.860210 -63.175800 11.754300 -0.000000 0.000003 -0.000188 -0.001756 -16.643900 -2.192510 6.469440 -0.000001 174.688000 19.326400 178.098000 -39.081100 -0.002282 -0.040193 0.035851 -0.096287 18.665900 -40.985400 0.000008 0.000006 -1.230770 3.675870 -62.044700 -11.754300 -0.000006 -0.000006 -0.005392 -0.065207 -19.226500
